HIERARCHY
ROOT hip
{
  OFFSET 49.3513 123.55 -83.8167
  CHANNELS 6 Xposition Yposition Zposition Zrotation Xrotation Yrotation
  JOINT abdomen
  {
    OFFSET 0 20.6881 -0.73152
    CHANNELS 3 Zrotation Xrotation Yrotation
    JOINT chest
    {
      OFFSET 0 11.7043 -0.48768
      CHANNELS 3 Zrotation Xrotation Yrotation
      JOINT neck
      {
        OFFSET 0 22.1894 -2.19456
        CHANNELS 3 Zrotation Xrotation Yrotation
        JOINT head
        {
          OFFSET -0.24384 7.07133 1.2192
          CHANNELS 3 Zrotation Xrotation Yrotation
          JOINT leftEye
          {
            OFFSET 4.14528 8.04674 8.04672
            CHANNELS 3 Zrotation Xrotation Yrotation
            End Site
            {
              OFFSET 1 0 0
            }
          }
          JOINT rightEye
          {
            OFFSET -3.6576 8.04674 8.04672
            CHANNELS 3 Zrotation Xrotation Yrotation
            End Site
            {
              OFFSET 1 0 0
            }
          }
        }
      }
      JOINT rCollar
      {
        OFFSET -2.68224 19.2634 -4.8768
        CHANNELS 3 Zrotation Xrotation Yrotation
        JOINT rShldr
        {
          OFFSET -8.77824 -1.95073 1.46304
          CHANNELS 3 Zrotation Xrotation Yrotation
          JOINT rForeArm
          {
            OFFSET -28.1742 -1.7115 0.48768
            CHANNELS 3 Zrotation Xrotation Yrotation
            JOINT rHand
            {
              OFFSET -22.5879 0.773209 7.07136
              CHANNELS 3 Zrotation Xrotation Yrotation
              JOINT rThumb1
              {
                OFFSET -1.2192 -0.487915 3.41376
                CHANNELS 3 Zrotation Xrotation Yrotation
                JOINT rThumb2
                {
                  OFFSET -3.37035 -0.52449 3.41376
                  CHANNELS 3 Zrotation Xrotation Yrotation
                  End Site
                  {
                    OFFSET -1.78271 -1.18214 1.43049
                  }
                }
              }
              JOINT rIndex1
              {
                OFFSET -7.75947 0.938293 5.60832
                CHANNELS 3 Zrotation Xrotation Yrotation
                JOINT rIndex2
                {
                  OFFSET -2.54057 -0.884171 1.56538
                  CHANNELS 3 Zrotation Xrotation Yrotation
                  End Site
                  {
                    OFFSET -1.62519 -0.234802 1.16502
                  }
                }
              }
              JOINT rMid1
              {
                OFFSET -8.24714 1.18213 3.41376
                CHANNELS 3 Zrotation Xrotation Yrotation
                JOINT rMid2
                {
                  OFFSET -3.10165 -0.590103 1.0647
                  CHANNELS 3 Zrotation Xrotation Yrotation
                  End Site
                  {
                    OFFSET -2.48547 -0.328903 0.83742
                  }
                }
              }
              JOINT rRing1
              {
                OFFSET -8.82822 0.546677 1.51678
                CHANNELS 3 Zrotation Xrotation Yrotation
                JOINT rRing2
                {
                  OFFSET -2.60934 -0.819778 -0.0198488
                  CHANNELS 3 Zrotation Xrotation Yrotation
                  End Site
                  {
                    OFFSET -2.33842 -0.294052 0.168128
                  }
                }
              }
              JOINT rPinky1
              {
                OFFSET -8.27202 -0.0477905 -0.4584
                CHANNELS 3 Zrotation Xrotation Yrotation
                JOINT rPinky2
                {
                  OFFSET -1.82734 -0.647385 -0.700984
                  CHANNELS 3 Zrotation Xrotation Yrotation
                  End Site
                  {
                    OFFSET -1.69225 -0.51767 -0.607171
                  }
                }
              }
            }
          }
        }
      }
      JOINT lCollar
      {
        OFFSET 2.68224 19.2634 -4.8768
        CHANNELS 3 Zrotation Xrotation Yrotation
        JOINT lShldr
        {
          OFFSET 8.77824 -1.95073 1.46304
          CHANNELS 3 Zrotation Xrotation Yrotation
          JOINT lForeArm
          {
            OFFSET 28.1742 -1.7115 0.48768
            CHANNELS 3 Zrotation Xrotation Yrotation
            JOINT lHand
            {
              OFFSET 22.5879 0.773209 7.07136
              CHANNELS 3 Zrotation Xrotation Yrotation
              JOINT lThumb1
              {
                OFFSET 1.2192 -0.487915 3.41376
                CHANNELS 3 Zrotation Xrotation Yrotation
                JOINT lThumb2
                {
                  OFFSET 3.37035 -0.52449 3.41376
                  CHANNELS 3 Zrotation Xrotation Yrotation
                  End Site
                  {
                    OFFSET 1.78271 -1.18214 1.43049
                  }
                }
              }
              JOINT lIndex1
              {
                OFFSET 7.75947 0.938293 5.60832
                CHANNELS 3 Zrotation Xrotation Yrotation
                JOINT lIndex2
                {
                  OFFSET 2.54057 -0.884171 1.56538
                  CHANNELS 3 Zrotation Xrotation Yrotation
                  End Site
                  {
                    OFFSET 1.62519 -0.234802 1.16502
                  }
                }
              }
              JOINT lMid1
              {
                OFFSET 8.24714 1.18213 3.41376
                CHANNELS 3 Zrotation Xrotation Yrotation
                JOINT lMid2
                {
                  OFFSET 3.10165 -0.590103 1.0647
                  CHANNELS 3 Zrotation Xrotation Yrotation
                  End Site
                  {
                    OFFSET 2.48547 -0.328903 0.83742
                  }
                }
              }
              JOINT lRing1
              {
                OFFSET 8.82822 0.546677 1.51678
                CHANNELS 3 Zrotation Xrotation Yrotation
                JOINT lRing2
                {
                  OFFSET 2.60934 -0.819778 -0.0198488
                  CHANNELS 3 Zrotation Xrotation Yrotation
                  End Site
                  {
                    OFFSET 2.33842 -0.294052 0.168128
                  }
                }
              }
              JOINT lPinky1
              {
                OFFSET 8.27202 -0.0477905 -0.4584
                CHANNELS 3 Zrotation Xrotation Yrotation
                JOINT lPinky2
                {
                  OFFSET 1.82734 -0.647385 -0.700984
                  CHANNELS 3 Zrotation Xrotation Yrotation
                  End Site
                  {
                    OFFSET 1.69225 -0.51767 -0.607171
                  }
                }
              }
            }
          }
        }
      }
    }
  }
  JOINT rButtock
  {
    OFFSET -8.77824 4.35084 1.2192
    CHANNELS 3 Zrotation Xrotation Yrotation
    JOINT rThigh
    {
      OFFSET 0 -1.70687 -2.19456
      CHANNELS 3 Zrotation Xrotation Yrotation
      JOINT rShin
      {
        OFFSET 0 -36.8199 0.73152
        CHANNELS 3 Zrotation Xrotation Yrotation
        JOINT rFoot
        {
          OFFSET 0.73152 -45.1104 -5.12064
          CHANNELS 3 Zrotation Xrotation Yrotation
          End Site
          {
            OFFSET -1.1221 -3.69964 12.103
          }
        }
      }
    }
  }
  JOINT lButtock
  {
    OFFSET 8.77824 4.35084 1.2192
    CHANNELS 3 Zrotation Xrotation Yrotation
    JOINT lThigh
    {
      OFFSET 0 -1.70687 -2.19456
      CHANNELS 3 Zrotation Xrotation Yrotation
      JOINT lShin
      {
        OFFSET 0 -36.8199 0.73152
        CHANNELS 3 Zrotation Xrotation Yrotation
        JOINT lFoot
        {
          OFFSET -0.73152 -45.1104 -5.12064
          CHANNELS 3 Zrotation Xrotation Yrotation
          End Site
          {
            OFFSET 1.1221 -3.69964 12.103
          }
        }
      }
    }
  }
}
MOTION
Frames:	6
Frame Time:	0.00833333
45.103 95.4042 111.637 1.03864 -12.7213 173.774 -3.4132 8.42247 -5.20853 7.75936 4.35164 -2.01117 -3.53359 9.01154 -2.35012 8.1107 4.44086 -0.687598 -0 0 0 -0 0 0 -1.43848e-013 2.22689e-014 -5.15349e-014 70.0413 -45.8425 -25.6716 -5.9961 -2.04199 10.4789 -4.69273 50.6983 9.88648 2.63675e-009 3.29158e-009 -1.60936e-009 4.47202e-009 5.52537e-009 -2.87873e-009 2.63675e-009 3.29158e-009 -1.60937e-009 7.73091 5.47488 0.417314 2.63675e-009 3.29158e-009 -1.60937e-009 2.90554 0.965183 0.102902 2.63676e-009 3.29158e-009 -1.60936e-009 10.2786 0.731801 0.0259123 2.63675e-009 3.29158e-009 -1.60936e-009 2.22167 -0.733487 -0.20892 -1.44001e-013 2.22581e-014 -5.17834e-014 -75.3271 30.8313 -17.9181 13.8266 -6.81539 -25.2058 0.430372 18.3245 -2.66786 6.50512e-010 1.71581e-009 2.72988e-009 1.16374e-009 2.9771e-009 4.70771e-009 6.50509e-010 1.71581e-009 2.72989e-009 -7.73091 5.47488 -0.417314 6.50516e-010 1.71581e-009 2.72988e-009 -2.90554 0.965183 -0.102902 6.5051e-010 1.7158e-009 2.72988e-009 -10.2786 0.731801 -0.0259123 6.50516e-010 1.7158e-009 2.72987e-009 -2.22167 -0.733487 0.20892 -2.03217e-016 0 -3.88251e-019 -4.76669 -57.0174 1.23233 -0.201342 28.2888 -0.335287 -0.447638 2.57426 -8.26068 2.03217e-016 0 3.88251e-019 -3.88896 0.33046 -10.3289 0.16396 18.7565 -0.00427734 -0.916258 -6.31908 -7.03236 
45.2448 96.0586 109.606 0.78212 -13.1811 173.861 -2.44156 8.12508 -5.30213 7.63036 4.24543 -1.98768 -3.77848 9.35943 -2.20898 7.87812 3.60073 -0.476217 -0 0 0 -0 0 0 -1.21642e-013 4.60474e-014 -6.43577e-014 70.3764 -45.2176 -24.6796 -5.98633 -2.03701 10.4621 -4.71141 50.7146 9.90262 2.6183e-009 3.13651e-009 -2.10509e-009 4.42366e-009 5.23841e-009 -3.73074e-009 2.6183e-009 3.13651e-009 -2.1051e-009 7.73091 5.47488 0.417314 2.61829e-009 3.13651e-009 -2.10509e-009 2.90554 0.965183 0.102902 2.6183e-009 3.13651e-009 -2.10509e-009 10.2786 0.731801 0.0259123 2.61829e-009 3.13652e-009 -2.10509e-009 2.22167 -0.733487 -0.20892 -1.21771e-013 4.60389e-014 -6.45755e-014 -76.2563 30.6513 -16.6461 13.5853 -6.62727 -24.718 0.411639 17.9349 -2.60723 2.82726e-010 1.5029e-009 2.7171e-009 5.27599e-010 2.61149e-009 4.6912e-009 2.82722e-010 1.5029e-009 2.71712e-009 -7.73091 5.47488 -0.417314 2.82729e-010 1.5029e-009 2.7171e-009 -2.90554 0.965183 -0.102902 2.82722e-010 1.5029e-009 2.7171e-009 -10.2786 0.731801 -0.0259123 2.82729e-010 1.50289e-009 2.71709e-009 -2.22167 -0.733487 0.20892 -2.03217e-016 0 -3.88251e-019 -3.94606 -56.4796 1.45177 -0.212388 28.855 -0.348981 -0.41236 2.68123 -7.81457 2.03217e-016 0 3.88251e-019 -3.53064 -0.035018 -10.308 0.176664 20.8535 -0.0332555 -0.163409 -1.8017 -5.1611 
45.3621 96.786 107.552 0.554613 -13.676 174.063 -1.41812 7.82153 -5.44768 7.45598 4.13605 -1.98012 -3.98456 9.68694 -2.01334 7.42379 2.72474 -0.177561 -0 0 0 -0 0 0 -6.86815e-014 6.69922e-014 -7.99394e-014 71.2215 -43.6481 -23.0137 -6.01934 -2.05111 10.5219 -4.49311 49.8721 9.61373 2.17488e-009 2.40314e-009 -2.41823e-009 3.65108e-009 3.97355e-009 -4.2512e-009 2.17488e-009 2.40314e-009 -2.41824e-009 7.73091 5.47488 0.417314 2.17488e-009 2.40314e-009 -2.41823e-009 2.90554 0.965183 0.102902 2.17488e-009 2.40314e-009 -2.41823e-009 10.2786 0.731801 0.0259123 2.17487e-009 2.40314e-009 -2.41822e-009 2.22167 -0.733487 -0.20892 -6.87826e-014 6.69881e-014 -8.01289e-014 -77.0865 30.5496 -15.2776 13.2532 -6.36876 -24.0593 0.380146 17.2346 -2.49926 -3.12465e-010 9.72505e-010 2.29092e-009 -5.07778e-010 1.69597e-009 3.96383e-009 -3.12467e-010 9.72506e-010 2.29093e-009 -7.73091 5.47488 -0.417314 -3.12462e-010 9.72501e-010 2.29092e-009 -2.90554 0.965183 -0.102902 -3.12468e-010 9.72501e-010 2.29092e-009 -10.2786 0.731801 -0.0259123 -3.12461e-010 9.72499e-010 2.29091e-009 -2.22167 -0.733487 0.20892 -2.03217e-016 0 -3.88251e-019 -3.18006 -55.8102 1.62126 -0.21933 29.215 -0.367383 -0.490207 1.82402 -7.19533 2.03217e-016 0 3.88251e-019 -3.21537 -0.712062 -10.0945 0.194525 23.5215 -0.0570484 0.35084 3.74726 -3.05495 
45.5296 97.4854 105.548 0.334443 -14.1222 174.295 -0.443658 7.54486 -5.56038 7.28916 4.01785 -1.96518 -4.15478 9.99493 -1.82115 6.95691 1.88448 0.112611 -0 0 0 -0 0 0 -1.1672e-014 8.46568e-014 -9.48486e-014 72.3204 -41.4433 -21.0225 -6.09784 -2.08631 10.6623 -4.11902 48.3998 9.12098 1.60384e-009 1.52073e-009 -2.54413e-009 2.66585e-009 2.46402e-009 -4.44387e-009 1.60385e-009 1.52073e-009 -2.54414e-009 7.73091 5.47488 0.417314 1.60384e-009 1.52073e-009 -2.54412e-009 2.90554 0.965183 0.102902 1.60385e-009 1.52073e-009 -2.54413e-009 10.2786 0.731801 0.0259123 1.60383e-009 1.52073e-009 -2.54412e-009 2.22167 -0.733487 -0.20892 -1.17419e-014 8.46575e-014 -9.50144e-014 -77.8141 30.4896 -13.9354 12.8621 -6.07103 -23.2918 0.356882 16.6914 -2.41608 -8.86459e-010 3.85522e-010 1.7425e-009 -1.5081e-009 6.81666e-010 3.02489e-009 -8.8646e-010 3.85524e-010 1.74252e-009 -7.73091 5.47488 -0.417314 -8.86457e-010 3.85518e-010 1.74251e-009 -2.90554 0.965183 -0.102902 -8.86462e-010 3.85517e-010 1.74251e-009 -10.2786 0.731801 -0.0259123 -8.86453e-010 3.85517e-010 1.7425e-009 -2.22167 -0.733487 0.20892 -2.03217e-016 0 -3.88251e-019 -2.47061 -54.9966 1.69919 -0.223411 29.4376 -0.393064 -0.586892 0.575517 -6.49504 2.03217e-016 0 3.88251e-019 -2.91637 -1.70373 -9.72121 0.222013 26.7375 -0.0849899 0.443834 9.1318 -0.874097 
45.758 98.121 103.604 0.0958456 -14.4357 174.469 0.382872 7.32802 -5.55561 7.18309 3.88515 -1.91956 -4.29079 10.2843 -1.69057 6.67976 1.15166 0.29885 -0 0 0 -0 0 0 2.26797e-014 9.85949e-014 -1.05654e-013 73.4954 -38.9355 -18.9831 -6.22432 -2.14462 10.8876 -3.67041 46.5267 8.52479 1.20252e-009 9.18535e-010 -2.47815e-009 1.97957e-009 1.44301e-009 -4.31247e-009 1.20253e-009 9.18537e-010 -2.47815e-009 7.73091 5.47488 0.417314 1.20252e-009 9.18536e-010 -2.47814e-009 2.90554 0.965183 0.102902 1.20253e-009 9.18537e-010 -2.47814e-009 10.2786 0.731801 0.0259123 1.20252e-009 9.18538e-010 -2.47813e-009 2.22167 -0.733487 -0.20892 2.26447e-014 9.85991e-014 -1.05803e-013 -78.4333 30.4397 -12.744 12.4465 -5.76672 -22.4774 0.357963 16.7729 -2.42773 -1.19066e-009 2.84658e-012 1.36304e-009 -2.03907e-009 1.9694e-011 2.37367e-009 -1.19066e-009 2.84938e-012 1.36306e-009 -7.73091 5.47488 -0.417314 -1.19065e-009 2.84173e-012 1.36304e-009 -2.90554 0.965183 -0.102902 -1.19066e-009 2.84063e-012 1.36304e-009 -10.2786 0.731801 -0.0259123 -1.19065e-009 2.84143e-012 1.36303e-009 -2.22167 -0.733487 0.20892 -2.03217e-016 0 -3.88251e-019 -1.81374 -54.0265 1.64876 -0.225802 29.5918 -0.428642 -0.636047 -0.487385 -5.80063 2.03217e-016 0 3.88251e-019 -2.60346 -3.01351 -9.22145 0.26603 30.4785 -0.127658 0.171241 13.1435 1.22573 
45.9675 98.6358 101.711 -0.177794 -14.5753 174.522 1.02789 7.18998 -5.40131 7.16565 3.71929 -1.83174 -4.37892 10.6069 -1.65292 6.68375 0.483194 0.322901 -0 0 0 -0 0 0 2.38677e-014 1.02843e-013 -1.11474e-013 74.7176 -35.9816 -16.9535 -6.39099 -2.22042 11.1874 -3.14422 44.0652 7.80132 9.84742e-010 6.90219e-010 -1.98338e-009 1.62239e-009 1.07729e-009 -3.44992e-009 9.8475e-010 6.90222e-010 -1.9834e-009 7.73091 5.47488 0.417314 9.84739e-010 6.9022e-010 -1.98338e-009 2.90554 0.965183 0.102902 9.84744e-010 6.9022e-010 -1.98338e-009 10.2786 0.731801 0.0259123 9.84734e-010 6.90222e-010 -1.98337e-009 2.22167 -0.733487 -0.20892 2.38857e-014 1.0285e-013 -1.11618e-013 -78.8845 30.4911 -11.7976 11.9591 -5.42761 -21.5188 0.399764 17.8358 -2.58942 -1.00696e-009 -7.29425e-011 1.14999e-009 -1.72387e-009 -1.13549e-010 2.00206e-009 -1.00696e-009 -7.29426e-011 1.15001e-009 -7.73091 5.47488 -0.417314 -1.00696e-009 -7.29496e-011 1.14999e-009 -2.90554 0.965183 -0.102902 -1.00696e-009 -7.29509e-011 1.15e-009 -10.2786 0.731801 -0.0259123 -1.00695e-009 -7.29493e-011 1.14999e-009 -2.22167 -0.733487 0.20892 -2.03217e-016 0 -3.88251e-019 -1.27049 -52.8742 1.34854 -0.228992 29.697 -0.483913 -0.630423 -1.25985 -5.09473 2.03217e-016 0 3.88251e-019 -2.22739 -4.70878 -8.56872 0.343607 35.2059 -0.195443 -0.33202 15.6218 3.47376 
